PathFileType	4	(X/Y/Z)	C:\Users\Biomechanik\SynologyDrive\AlexP\Athlete_03\Athlete_3_25_03_31\Deadlift_35kg_01\marker_experimental.trc
DataRate	CameraRate	NumFrames	NumMarkers	Units	OrigDataRate	OrigDataStartFrame	OrigNumFrames
200.000000	200.000000	4	55	mm	200.000000	1287	2060
Frame#	Time	BL			BR			GLAB			RFHD			LFHD			C7			T6			SPINMOL			SPINM2			SPINM3			T12			BELTOL			BELT2			BELT3			SACROL			SACR2			SACR3			LTHOL			LTH2			LTH3			LSHAOL			LSHA2			LSHA3			LHEE			LTOE			LM5			RTHOL			RTH2			RTH3			RSHAOL			RSHA2			RSHA3			RHEE			RTOE			RM5			STRN			XIPH			LACR			LUAOL			LUA2			LUA3			LLAOL			LLA2			LLA3			LWRR			LWRU			RACR			RUAOL			RUA2			RUA3			RLAOL			RLA2			RLA3			RWRR			RWRU			
		X1	Y1	Z1	X2	Y2	Z2	X3	Y3	Z3	X4	Y4	Z4	X5	Y5	Z5	X6	Y6	Z6	X7	Y7	Z7	X8	Y8	Z8	X9	Y9	Z9	X10	Y10	Z10	X11	Y11	Z11	X12	Y12	Z12	X13	Y13	Z13	X14	Y14	Z14	X15	Y15	Z15	X16	Y16	Z16	X17	Y17	Z17	X18	Y18	Z18	X19	Y19	Z19	X20	Y20	Z20	X21	Y21	Z21	X22	Y22	Z22	X23	Y23	Z23	X24	Y24	Z24	X25	Y25	Z25	X26	Y26	Z26	X27	Y27	Z27	X28	Y28	Z28	X29	Y29	Z29	X30	Y30	Z30	X31	Y31	Z31	X32	Y32	Z32	X33	Y33	Z33	X34	Y34	Z34	X35	Y35	Z35	X36	Y36	Z36	X37	Y37	Z37	X38	Y38	Z38	X39	Y39	Z39	X40	Y40	Z40	X41	Y41	Z41	X42	Y42	Z42	X43	Y43	Z43	X44	Y44	Z44	X45	Y45	Z45	X46	Y46	Z46	X47	Y47	Z47	X48	Y48	Z48	X49	Y49	Z49	X50	Y50	Z50	X51	Y51	Z51	X52	Y52	Z52	X53	Y53	Z53	X54	Y54	Z54	X55	Y55	Z55	

1288	6.435	2229.90869140625	544.4642944335939	370.5408325195316	208.6154479980468	524.535888671875	379.2716369628907	1196.188110351562	1338.5986328125	621.8131103515627	1133.532836914062	1388.88623046875	596.8697509765627	1269.272094726562	1382.599365234375	602.227478027344	1209.866943359375	1333.508666992188	337.5599365234377	1213.975708007812	1212.551635742188	207.4519958496096	1236.03662109375	1188.747192382812	187.0193481445315	1186.505615234375	1184.079833984375	178.646179199219	1221.63916015625	1134.996704101562	150.9588317871096	1218.358764648438	1086.696044921875	127.5131530761721	1233.848388671875	1075.887329101562	91.98684692382835	1183.503051757812	1071.702392578125	91.26158905029318	1213.688354492188	1027.321044921875	52.04457473754905	1240.233276367188	943.4624023437501	-5.115416526794205	1188.991333007812	941.2745361328126	-2.517748117446681	1215.15673828125	887.5060424804689	-30.97095870971657	1413.6787109375	630.1075439453126	153.0869598388674	1389.322631835938	557.5487670898439	134.4543762207034	1401.614501953125	576.4462890625001	179.0921936035159	1410.540283203125	315.5292053222657	211.2570648193362	1400.96728515625	259.1307983398439	155.647399902344	1401.533935546875	254.4498443603516	204.6324920654299	1308.28369140625	69.08715057373055	105.9351654052737	1320.011962890625	46.51237869262703	321.0509948730471	1420.955810546875	29.83588790893563	273.274353027344	1019.750183105469	629.2855224609376	137.7254943847658	1003.664001464844	608.2532348632814	213.3244628906252	1024.192138671875	581.4270019531251	177.0822906494143	1009.601501464844	333.9907226562501	206.7962341308596	1014.103088378906	258.5224609375001	230.6582489013674	1021.461975097656	276.6803588867188	184.5478820800783	1126.052734375	63.08431243896491	113.5954208374026	1101.360473632812	46.80858612060553	325.3742980957034	1004.316284179688	40.10799026489264	267.7487792968752	1210.088745117188	1171.559204101562	446.7961120605471	1211.768188476562	1033.007446289062	411.8321838378909	1382.132446289062	1238.068237304688	403.4930114746096	1473.026000976562	1080.536865234375	404.1033020019534	1497.103515625	1019.989379882813	397.361267089844	1455.593383789062	1022.007934570313	427.2528076171878	1502.72021484375	812.0325927734376	397.782653808594	1510.333374023438	754.2858886718751	344.053894042969	1503.882080078125	751.5269165039064	393.2897033691409	1500.905395507812	643.4301757812501	405.5851135253909	1424.968139648438	638.8189697265626	381.052917480469	1048.023071289062	1229.413208007812	402.8033752441408	963.7191772460935	1077.469604492188	393.1365966796877	973.1000366210935	1016.889038085938	414.7169494628908	936.9096679687498	1018.223937988281	378.8951416015627	936.2344970703124	798.6182861328126	382.3936157226564	937.8969726562499	735.7032470703126	430.9116821289064	932.7750244140624	735.7689819335939	381.4574584960939	934.7317504882811	646.0927734375001	410.4526977539064	1005.761291503906	625.0470581054689	371.7639160156252	
1289	6.44	2229.963623046875	542.8391113281251	370.7996520996098	208.6698760986327	522.9151000976562	379.2939453125001	1196.121704101562	1336.151000976562	623.0879516601565	1133.491821289062	1386.53662109375	598.2559814453127	1269.194580078125	1380.187866210938	603.6921386718752	1209.877075195312	1332.015380859375	338.8606872558596	1214.012573242188	1211.665161132812	208.2595672607424	1236.073974609375	1187.953125	187.7157440185549	1186.535400390625	1183.305419921875	179.3355560302737	1221.672973632812	1134.369140625	151.4314880371096	1218.40234375	1086.161987304688	127.7588500976565	1233.896118164062	1075.4951171875	92.14626312255882	1183.56005859375	1071.311157226562	91.42022705078146	1213.769287109375	1027.080078125	52.0099792480471	1240.26806640625	943.2521362304689	-5.511621475219498	1189.041015625	941.0673828125001	-2.906118154525538	1215.186157226562	887.3491210937501	-31.4861316680906	1413.776733398438	629.8055419921876	152.6915435791018	1389.368896484375	557.2262573242189	134.239685058594	1401.7001953125	576.2755737304689	178.8143768310549	1410.6025390625	315.4872436523439	211.2943420410159	1401.03515625	259.0910034179689	155.6808013916018	1401.5654296875	254.4212646484376	204.6524658203128	1308.275146484375	69.10307312011727	105.9394683837893	1320.008056640625	46.50617218017586	321.0528259277346	1420.943969726562	29.85568618774423	273.257507324219	1019.72119140625	629.0009155273439	137.3638153076174	1003.585510253906	608.1218872070314	212.9971618652345	1024.130126953125	581.2209472656251	176.8269348144533	1009.547912597656	333.9627685546876	206.8040924072268	1014.104309082031	258.5035095214844	230.6932678222658	1021.417602539062	276.6608886718751	184.5381011962893	1126.055297851562	63.09519195556648	113.5991363525393	1101.35205078125	46.80795288085944	325.3735961914065	1004.312316894531	40.10545730590827	267.7476501464845	1210.130126953125	1169.655639648438	447.4585571289065	1211.848510742188	1031.263549804688	411.8638305664065	1382.110717773438	1236.324951171875	404.5045166015627	1473	1078.845092773438	404.7698059082034	1497.132690429688	1018.355712890625	397.9168090820315	1455.606201171875	1020.265502929688	427.7977600097659	1502.805419921875	810.3792114257814	398.1022033691409	1510.365112304688	752.6848144531251	344.3031005859378	1503.951416015625	749.8796386718751	393.5530090332034	1500.976928710938	641.7760620117189	405.7808227539065	1425.033447265625	637.1663818359376	381.2626037597659	1048.124145507812	1227.6064453125	403.7407531738283	963.8695068359373	1075.8037109375	393.7694702148439	973.2133789062498	1015.182739257813	415.252655029297	936.9520263671873	1016.612731933594	379.4766845703127	936.2743530273436	796.9756469726564	382.6873168945314	937.9716186523436	734.0295410156251	431.1588439941408	932.8067016601561	734.1304321289064	381.6960449218752	934.7565917968749	644.4480590820314	410.611297607422	1005.881164550781	623.2832031250001	371.7949218750002	
1290	6.445	2230.02099609375	541.2084960937501	371.0557861328129	208.7265167236327	521.2949829101562	379.3105163574219	1196.037231445312	1333.68212890625	624.350769042969	1133.439453125	1384.172241210938	599.630798339844	1269.100830078125	1377.750244140625	605.154235839844	1209.883666992188	1330.51806640625	340.1512451171877	1214.044921875	1210.77294921875	209.0597839355471	1236.107421875	1187.153686523438	188.4053802490237	1186.56591796875	1182.524047851562	180.0172271728518	1221.705200195312	1133.734375	151.8994293212893	1218.445556640625	1085.620849609375	128.0025329589846	1233.947998046875	1075.095092773438	92.30222320556663	1183.619873046875	1070.91162109375	91.57421112060568	1213.853271484375	1026.828369140625	51.97338485717795	1240.307495117188	943.0305175781251	-5.906410694122086	1189.095947265625	940.8488769531251	-3.294015169143458	1215.220092773438	887.1781005859376	-31.99514389038064	1413.87353515625	629.5012207031251	152.3093872070315	1389.423217773438	556.9006958007814	134.0358123779299	1401.792236328125	576.0966186523439	178.5485687255862	1410.667236328125	315.4410705566407	211.3440551757815	1401.106323242188	259.0486145019532	155.7246551513674	1401.595458984375	254.3867187500001	204.6872863769534	1308.267211914062	69.11943054199227	105.9440765380862	1320.003295898438	46.4994316101075	321.0550231933596	1420.932006835938	29.87615966796884	273.2421569824222	1019.690246582031	628.7178955078126	137.0147399902346	1003.502380371094	607.9935302734376	212.6806640625002	1024.065551757812	581.0157470703126	176.5837249755861	1009.491760253906	333.9322204589844	206.8217620849611	1014.104431152344	258.4833679199219	230.7319641113283	1021.369934082031	276.6399230957032	184.5341186523439	1126.05712890625	63.10641860961921	113.6028213500979	1101.34326171875	46.80786132812506	325.3726501464846	1004.307800292969	40.10298919677741	267.7463989257814	1210.169311523438	1167.751953125	448.1115417480471	1211.93212890625	1029.521484375	411.8887329101565	1382.083251953125	1234.5791015625	405.508728027344	1472.965942382812	1077.149780273438	405.4341735839847	1497.154296875	1016.720764160156	398.4698486328128	1455.611938476562	1018.523376464844	428.3388671875003	1502.887084960938	808.7265625000001	398.4182739257815	1510.387817382812	751.0839233398439	344.5482177734378	1504.014038085938	748.2320556640626	393.8135070800784	1501.04638671875	640.1212768554689	405.9745178222659	1425.097412109375	635.5103149414064	381.4690246582034	1048.221313476562	1225.797485351562	404.6694641113283	964.0172729492185	1074.1357421875	394.4042358398439	973.3336181640623	1013.473449707031	415.789031982422	936.9868164062498	1014.999816894531	380.0628967285158	936.3160400390624	795.3319091796876	382.9814453125002	938.0534057617186	732.3511352539064	431.4052734375002	932.8423461914061	732.4903564453126	381.9351806640627	934.7805786132811	642.8028564453126	410.771209716797	1005.997131347656	621.5337524414064	371.8401489257814	
1291	6.45	2230.080810546875	539.5718994140626	371.309478759766	208.785430908203	519.6748046875	379.3216247558594	1195.934692382812	1331.19140625	625.6000976562502	1133.375610351562	1381.792724609375	600.9937133789065	1268.991088867188	1375.286254882812	606.6126098632815	1209.886840820312	1329.017456054688	341.4304809570315	1214.072631835938	1209.874755859375	209.8520660400393	1236.136596679688	1186.348388671875	189.0877685546877	1186.5966796875	1181.735229492188	180.6906738281252	1221.735961914062	1133.091918945312	152.3620452880862	1218.487915039062	1085.072021484375	128.2440643310549	1234.003662109375	1074.68603515625	92.45596313476585	1183.681762695312	1070.5029296875	91.72362518310568	1213.938354492188	1026.564819335938	51.93637847900413	1240.351440429688	942.7975463867189	-6.299350261688004	1189.155517578125	940.6185302734376	-3.681383848190089	1215.258544921875	886.9931030273439	-32.4977111816404	1413.9697265625	629.1937866210939	151.9412078857424	1389.486938476562	556.5707397460939	133.843444824219	1401.89111328125	575.9069824218751	178.2959136962893	1410.735595703125	315.3902587890626	211.4073028564456	1401.182006835938	259.0031738281251	155.7801055908206	1401.625366210938	254.3462677001954	204.7370147705081	1308.260131835938	69.1359176635743	105.949157714844	1319.997802734375	46.49227142333992	321.057556152344	1420.920043945312	29.89686965942391	273.2290649414065	1019.657104492188	628.4355468750001	136.6792907714846	1003.416259765625	607.8674926757814	212.3762359619142	1023.998840332031	580.8105468750001	176.3537750244143	1009.433410644531	333.8989868164063	206.8509979248049	1014.105529785156	258.4612731933594	230.7764129638674	1021.319152832031	276.6174011230469	184.5374298095705	1126.058715820312	63.11838150024421	113.6067428588869	1101.334228515625	46.80826187133795	325.3716125488284	1004.303039550781	40.10055160522467	267.7453002929689	1210.2060546875	1165.848999023438	448.754821777344	1212.018676757812	1027.7822265625	411.9072265625002	1382.050415039062	1232.831665039062	406.5043640136721	1472.92333984375	1075.451049804688	406.0946350097659	1497.166748046875	1015.083557128906	399.0180358886722	1455.609619140625	1016.782104492188	428.8749694824222	1502.96337890625	807.0745849609376	398.7304687500003	1510.4013671875	749.4831542968751	344.7890625000003	1504.069580078125	746.5845336914064	394.0702819824222	1501.112915039062	638.4664916992189	406.165222167969	1425.1591796875	633.8511352539064	381.6717224121097	1048.314208984375	1223.9873046875	405.5885009765627	964.1640014648435	1072.465454101562	395.0391540527345	973.4602050781248	1011.761840820313	416.3245239257814	937.016174316406	1013.384948730469	380.6517944335939	936.3602294921874	793.6871948242189	383.2750244140627	938.1429443359374	730.6682128906251	431.6498107910158	932.8823242187499	730.8489379882814	382.1737670898439	934.8046264648436	641.1568603515626	410.9310607910158	1006.108520507812	619.7999877929689	371.8997497558595	
